<?xml version="1.0" encoding="utf-8"?>
<!-- Generator: Adobe Illustrator 27.5.0, SVG Export Plug-In . SVG Version: 6.00 Build 0)  -->
<svg version="1.1" id="Layer_1" xmlns="http://www.w3.org/2000/svg" xmlns:xlink="http://www.w3.org/1999/xlink" x="0px" y="0px"
	 viewBox="0 0 841.89 841.89" style="enable-background:new 0 0 841.89 841.89;" xml:space="preserve">
<g>
	<g>
		<path style="fill:#E4EEF2;stroke:#284356;stroke-width:5;stroke-linecap:round;stroke-linejoin:round;stroke-miterlimit:10;" d="
			M709.113,675.267H132.165V348.569c0-15.353,12.45-27.802,27.813-27.802h521.328c15.358,0,27.808,12.45,27.808,27.802V675.267z"/>
		
			<rect x="161.676" y="357.984" style="fill:#F5F5F5;stroke:#284356;stroke-width:3;stroke-linejoin:round;stroke-miterlimit:10;" width="517.916" height="280.065"/>
		<rect x="176.66" y="426.188" style="fill:#7ECECA;" width="41.995" height="37.859"/>
		<rect x="176.66" y="485.999" style="fill:#7ECECA;" width="41.995" height="37.858"/>
		<rect x="176.66" y="547.081" style="fill:#7ECECA;" width="41.995" height="37.859"/>
		
			<line style="fill:none;stroke:#7ECECA;stroke-width:3;stroke-miterlimit:10;" x1="310.385" y1="390.875" x2="310.385" y2="636.547"/>
		
			<line style="fill:#F5F5F5;stroke:#7ECECA;stroke-width:3;stroke-linejoin:round;stroke-miterlimit:10;" x1="310.544" y1="434.459" x2="678.063" y2="434.459"/>
		
			<line style="fill:#F5F5F5;stroke:#7ECECA;stroke-width:3;stroke-linejoin:round;stroke-miterlimit:10;" x1="310.544" y1="488.118" x2="678.094" y2="488.118"/>
		
			<line style="fill:#F5F5F5;stroke:#7ECECA;stroke-width:3;stroke-linejoin:round;stroke-miterlimit:10;" x1="310.544" y1="541.778" x2="678.109" y2="541.778"/>
		<polygon style="fill:#7ECECA;" points="678.083,390.874 163.25,390.874 163.111,359.635 678.083,359.417 		"/>
		<path style="fill:#CC6262;" d="M195.241,374.649c0,4.911-3.981,8.893-8.893,8.893c-4.912,0-8.893-3.982-8.893-8.893
			c0-4.911,3.981-8.893,8.893-8.893C191.259,365.756,195.241,369.738,195.241,374.649z"/>
		<path style="fill:#B8CC64;" d="M223.066,374.649c0,4.911-3.981,8.893-8.893,8.893c-4.911,0-8.893-3.982-8.893-8.893
			c0-4.911,3.981-8.893,8.893-8.893C219.085,365.756,223.066,369.738,223.066,374.649z"/>
		<path style="fill:#E4EEF2;" d="M250.893,374.649c0,4.911-3.982,8.893-8.893,8.893c-4.911,0-8.893-3.982-8.893-8.893
			c0-4.911,3.982-8.893,8.893-8.893C246.911,365.756,250.893,369.738,250.893,374.649z"/>
		
			<ellipse transform="matrix(0.025 -0.9997 0.9997 0.025 264.0645 1020.039)" style="fill:#CC6262;stroke:#284356;stroke-width:3;stroke-linejoin:round;stroke-miterlimit:10;" cx="654.947" cy="374.649" rx="8.893" ry="8.893"/>
		<path style="fill:#E4EEF2;stroke:#284356;stroke-width:5;stroke-linecap:round;stroke-linejoin:round;stroke-miterlimit:10;" d="
			M752.761,692.185c-9.685,9.199-22.611,14.361-35.973,14.361H127.684c-13.424,0-26.473-4.846-36.638-13.628l-14.553-12.574
			c-2.719-2.349-1.054-6.817,2.533-6.817h682.943c3.76,0,5.588,4.601,2.863,7.188L752.761,692.185z"/>
		<path style="fill:#284356;" d="M428.165,340.465c0,4.153-3.375,7.528-7.532,7.528c-4.154,0-7.524-3.375-7.524-7.528
			c0-4.161,3.37-7.531,7.524-7.531C424.79,332.934,428.165,336.304,428.165,340.465z"/>
		<path style="fill:#284356;" d="M317.239,673.209l13.526,10.951c6.974,5.652,15.728,8.744,24.708,8.744h130.336
			c8.972,0,17.73-3.092,24.704-8.744l13.524-10.951H317.239z"/>
	</g>
	
		<line style="fill:none;stroke:#284356;stroke-width:5;stroke-linecap:round;stroke-linejoin:round;stroke-miterlimit:10;" x1="492.362" y1="190.764" x2="492.362" y2="658"/>
	<g>
		
			<line style="fill:none;stroke:#284356;stroke-width:5;stroke-linecap:round;stroke-linejoin:round;stroke-miterlimit:10;" x1="668.824" y1="190.764" x2="668.824" y2="658"/>
		
			<rect x="491.938" y="253.542" style="fill:#E5AB65;stroke:#284356;stroke-width:5;stroke-linejoin:round;stroke-miterlimit:10;" width="176.887" height="38.602"/>
		
			<rect x="491.938" y="362.984" style="fill:#E5AB65;stroke:#284356;stroke-width:5;stroke-linejoin:round;stroke-miterlimit:10;" width="176.887" height="38.602"/>
		
			<rect x="491.938" y="472.425" style="fill:#E5AB65;stroke:#284356;stroke-width:5;stroke-linejoin:round;stroke-miterlimit:10;" width="176.887" height="38.602"/>
		
			<rect x="491.938" y="581.865" style="fill:#E5AB65;stroke:#284356;stroke-width:5;stroke-linejoin:round;stroke-miterlimit:10;" width="176.887" height="38.601"/>
		<g>
			
				<line style="fill:none;stroke:#284356;stroke-width:5;stroke-linecap:round;stroke-linejoin:round;stroke-miterlimit:10;" x1="491.726" y1="292.144" x2="668.824" y2="362.984"/>
			
				<line style="fill:none;stroke:#284356;stroke-width:5;stroke-linecap:round;stroke-linejoin:round;stroke-miterlimit:10;" x1="668.825" y1="292.144" x2="491.727" y2="362.984"/>
		</g>
		<g>
			
				<line style="fill:none;stroke:#284356;stroke-width:5;stroke-linecap:round;stroke-linejoin:round;stroke-miterlimit:10;" x1="491.726" y1="401.585" x2="668.824" y2="472.425"/>
			
				<line style="fill:none;stroke:#284356;stroke-width:5;stroke-linecap:round;stroke-linejoin:round;stroke-miterlimit:10;" x1="668.825" y1="401.585" x2="491.727" y2="472.425"/>
		</g>
		<g>
			
				<line style="fill:none;stroke:#284356;stroke-width:5;stroke-linecap:round;stroke-linejoin:round;stroke-miterlimit:10;" x1="491.726" y1="511.026" x2="668.824" y2="581.865"/>
			
				<line style="fill:none;stroke:#284356;stroke-width:5;stroke-linecap:round;stroke-linejoin:round;stroke-miterlimit:10;" x1="668.825" y1="511.026" x2="491.727" y2="581.865"/>
		</g>
	</g>
	
		<line style="fill:none;stroke:#284356;stroke-width:3;stroke-linecap:round;stroke-linejoin:round;stroke-miterlimit:10;" x1="186.947" y1="318.869" x2="186.947" y2="468.182"/>
	
		<line style="fill:none;stroke:#284356;stroke-width:3;stroke-linecap:round;stroke-linejoin:round;stroke-miterlimit:10;" x1="363.409" y1="318.869" x2="363.409" y2="468.182"/>
	
		<line style="fill:#7ECECA;stroke:#7ECECA;stroke-width:3;stroke-linecap:round;stroke-linejoin:round;stroke-miterlimit:10;" x1="231.168" y1="434.777" x2="298.933" y2="434.777"/>
	
		<line style="fill:#7ECECA;stroke:#7ECECA;stroke-width:3;stroke-linecap:round;stroke-linejoin:round;stroke-miterlimit:10;" x1="231.168" y1="450.366" x2="270.617" y2="450.366"/>
	
		<line style="fill:#7ECECA;stroke:#7ECECA;stroke-width:3;stroke-linecap:round;stroke-linejoin:round;stroke-miterlimit:10;" x1="231.168" y1="492.997" x2="298.933" y2="492.997"/>
	
		<line style="fill:#7ECECA;stroke:#7ECECA;stroke-width:3;stroke-linecap:round;stroke-linejoin:round;stroke-miterlimit:10;" x1="231.168" y1="508.587" x2="270.617" y2="508.587"/>
	
		<line style="fill:#7ECECA;stroke:#7ECECA;stroke-width:3;stroke-linecap:round;stroke-linejoin:round;stroke-miterlimit:10;" x1="231.168" y1="551.218" x2="298.933" y2="551.218"/>
	
		<line style="fill:#7ECECA;stroke:#7ECECA;stroke-width:3;stroke-linecap:round;stroke-linejoin:round;stroke-miterlimit:10;" x1="231.168" y1="566.806" x2="270.617" y2="566.806"/>
	<g>
		<g>
			
				<path style="fill:#63717A;stroke:#284356;stroke-width:1.5;stroke-linecap:round;stroke-linejoin:round;stroke-miterlimit:10;" d="
				M212.176,482.565v13.084h-4.789v-2.096c0,0-0.835,2.096-2.759,2.096c-2.735,0-8.442,0-8.442,0s-0.327-3.448,1.604-4.022
				c1.932-0.574,6.823-0.862,8.111-4.596l-0.269-3.736L212.176,482.565z"/>
			<path style="fill:#27AAE1;stroke:#284356;stroke-width:1.5;stroke-miterlimit:10;" d="M201.333,450.5
				c1.654-3.99,5.48-5.176,5.48-5.176l-0.229-7.797l13.215,1.791l0.401,8.434l-9.929,8.629l2.252,32.146l-7.835,0.131
				C204.689,488.658,199.68,454.488,201.333,450.5z"/>
			<g>
				<path style="fill:none;stroke:#284356;stroke-width:1.5;stroke-linecap:round;stroke-linejoin:round;stroke-miterlimit:10;" d="
					M261.409,396.254v-2.604c0-0.496,0.326-0.936,0.801-1.081l16.029-4.879c0.949-0.289,1.602-1.169,1.602-2.162v-6.422
					c0,0,0-0.033,0-0.09c0-0.806-0.652-1.46-1.458-1.46c-0.188,0-0.313,0-0.313,0"/>
				<g>
					<path style="fill:#27AAE1;stroke:#284356;stroke-width:1.5;stroke-miterlimit:10;" d="M263.89,409.495
						c0,0.708-0.573,1.282-1.282,1.282h-2.645c-0.707,0-1.281-0.574-1.281-1.282v-12.405c0-0.708,0.574-1.282,1.281-1.282h2.645
						c0.709,0,1.282,0.574,1.282,1.282V409.495z"/>
				</g>
				
					<path style="fill:#FFFFFF;stroke:#284356;stroke-width:1.5496;stroke-linecap:round;stroke-linejoin:round;stroke-miterlimit:10;" d="
					M278.438,377.667c0,2.079-1.685,3.765-3.765,3.765h-23.181c-2.079,0-3.765-1.686-3.765-3.765l0,0
					c0-2.08,1.686-3.765,3.765-3.765h23.181C276.752,373.902,278.438,375.587,278.438,377.667L278.438,377.667z"/>
			</g>
			
				<path style="fill:#F4CFB3;stroke:#284356;stroke-width:1.5;stroke-linecap:round;stroke-linejoin:round;stroke-miterlimit:10;" d="
				M254.583,408.167c0,0,2.77-7.44,5.458-7.583c3.917-0.208,6.721,0.174,6.375,2.25c-0.417,2.5-1.082,4.92-1.958,5
				c-2.259,0.207-5.083,3-5.083,3L254.583,408.167z"/>
			
				<path style="fill:#FFFFFF;stroke:#284356;stroke-width:1.5496;stroke-linecap:round;stroke-linejoin:round;stroke-miterlimit:10;" d="
				M243.208,414.292c5.875-2.083,10.947-6.292,10.947-6.292l5.469,3c0,0-7.051,15.065-17.375,13.5
				c-8.25-1.25-12.421-15.463-12.421-15.463l2.179-11.676c0,0,4.789-1.089,7.296,8.615c1.755,6.793,4.118,9.049,6.441,9.123"/>
			
				<path style="fill:#F4CFB3;stroke:#284356;stroke-width:1.5;stroke-linecap:round;stroke-linejoin:round;stroke-miterlimit:10;" d="
				M190.5,396.375c0,0,0.25-2.563,0.188-7.313c-0.014-1.073-4.34-1.61-6.438-1.438c-1.822,0.149-0.958,3.038-1.375,3.813
				c-1.075,1.998,2.063,4.688,2.063,4.688L190.5,396.375z"/>
			<g>
				<path style="fill:#FFFFFF;stroke:#284356;stroke-width:1.5;stroke-linejoin:round;stroke-miterlimit:10;" d="M189.875,395.375
					l-5.438-0.125c0,0-4.887,12.976-1.887,20.179c0.2,0.479,0.454,0.973,0.743,1.475l8.4-4.142
					C189.143,404.887,189.875,395.375,189.875,395.375z"/>
				
					<path style="fill:#FFFFFF;stroke:#284356;stroke-width:1.5;stroke-linecap:round;stroke-linejoin:round;stroke-miterlimit:10;" d="
					M181.625,411.625c0,0,0.031,6.444,3.688,8.563c4.854,2.813,17.375-8.625,17.375-8.625l0.375-14.375c0,0-3.12,1.022-8.645,6.063
					c-1.26,1.149-3.898,3.57-5.355,4.75"/>
			</g>
			
				<path style="fill:#63717A;stroke:#284356;stroke-width:1.5;stroke-linecap:round;stroke-linejoin:round;stroke-miterlimit:10;" d="
				M225.724,486.433v9.194h4.788v-2.098c0,0,0.835,2.098,2.759,2.098c2.735,0,8.443,0,8.443,0s0.327-3.448-1.604-4.023
				c-1.931-0.575-6.823-0.861-8.111-4.598c-1.288-3.734-1.288-3.734-1.288-3.734L225.724,486.433z"/>
			<path style="fill:#27AAE1;stroke:#284356;stroke-width:1.5;stroke-miterlimit:10;" d="M239.648,452.19
				c-2.374-3.358-5.077-4.211-7.759-6.849c-1.675-1.646-0.574-7.814-0.574-7.814l-13.215,1.791l-8.001,14.65
				c0,0,15.972,0.162,17.819,4.728c2.227,5.502-2.983,29.316-2.983,29.316h9.365C234.299,488.014,243.316,457.385,239.648,452.19z"
				/>
			<path style="fill:#F4CFB3;stroke:#284356;stroke-width:1.5;stroke-miterlimit:10;" d="M223.856,381.303v15.437
				c0,0-2.081,2.05-6.604,1.873c-3.193-0.126-5.091-2.368-5.091-2.368l0.188-13.617L223.856,381.303z"/>
			<path style="fill:#F4CFB3;stroke:#284356;stroke-width:1.5;stroke-miterlimit:10;" d="M228.263,375.063
				c0,0,1.006-2.011,2.544-1.36c1.567,0.664,1.123,4.022-0.178,7.216c-1.301,3.194-3.135,2.957-3.135,2.957
				c0.297-1.36,0.414-2.069,0.532-4.671C228.076,378.139,228.263,375.063,228.263,375.063z"/>
			<path style="fill:#F4CFB3;stroke:#284356;stroke-width:1.5;stroke-miterlimit:10;" d="M206.617,374.411
				c0-0.73-0.947-2.188-2.727-1.065c-1.44,0.91-1.124,4.023,0.177,7.217c1.3,3.194,2.899,2.839,2.899,2.839
				S206.617,378.255,206.617,374.411z"/>
			<path style="fill:#997F6D;stroke:#284356;stroke-width:1.5;stroke-miterlimit:10;" d="M217.646,391.278
				c-2.91-1.212-10.131-6.723-10.519-8.919c-0.877-4.967-2.308-10.243-2.493-14.631c-0.354-8.427,6.401-10.935,9.404-11.267
				c2.101-0.232,4.315-0.1,5.945,0c0.627,0.039-0.089-1.597,0-1.597c2.572,0,4.924,2.598,5.412,2.75
				c4.155,1.293,6.743,4.396,5.146,11.089c-0.946,3.96-2.184,8.774-2.882,13.604C227.343,384.5,220.676,390.551,217.646,391.278z"/>
		</g>
		<path style="fill:#27AAE1;stroke:#284356;stroke-width:1.5;stroke-miterlimit:10;" d="M240.5,456.49l-39.334-0.24
			c0-0.813-0.113-2.508-0.135-3.344c-0.081-3.033,2.672-7.401,5.704-7.401h22.851C232.621,445.505,241.125,450.334,240.5,456.49z"/>
		<path style="fill:#27AAE1;stroke:#284356;stroke-width:1.5;stroke-miterlimit:10;" d="M232.226,396.891
			c-3.875-1.064-8.809-2.224-15.082-1.97c-5.808,0.235-9.4,1.061-12.873,1.902c-1.31,0.317-2.728,0.783-2.461,3.052
			c0.287,2.44,1.596,38.775,1.602,44.156c0,0.799-0.901,3.041-0.161,3.344c9.666,3.959,23.666,3.709,31-0.041
			c0.699-0.358-2.254-2.461-2.244-3.248l2.515-44.344C234.521,399.742,235.321,397.74,232.226,396.891z"/>
		
			<path style="fill:#FFFFFF;stroke:#284356;stroke-width:1.5;stroke-linecap:round;stroke-linejoin:round;stroke-miterlimit:10;" d="
			M230.595,396.459c-3.604-0.919-8.025-1.758-13.451-1.538c-4.819,0.195-8.108,0.798-11.074,1.479
			c-0.061,1.077,0.216,5.787,0.493,10.411c0.303,5.052,0.706,10.002,3.125,10.002c9.104,0,12.23,0.067,16.396,0
			c2.576-0.042,2.935-5.215,3.417-10.392C229.899,402.128,230.623,397.832,230.595,396.459z"/>
	</g>
	
		<rect x="186.947" y="457.153" style="fill:#E2DB9C;stroke:#284356;stroke-width:3;stroke-linejoin:round;stroke-miterlimit:10;" width="176.886" height="15.165"/>
	<path style="fill:#939598;stroke:#284356;stroke-width:1.5;stroke-linecap:round;stroke-linejoin:round;stroke-miterlimit:10;" d="
		M204.427,453.625c0,0,0.594,2.25,3.406,2.906"/>
	<path style="fill:#939598;stroke:#284356;stroke-width:1.5;stroke-linecap:round;stroke-linejoin:round;stroke-miterlimit:10;" d="
		M234.958,452.75c0,0-2.833,3.834-7.156,3.781"/>
	<g>
		<circle style="fill:#708C93;stroke:#284356;stroke-width:1.6784;stroke-miterlimit:10;" cx="492.5" cy="657.666" r="14.375"/>
		<circle style="fill:#DDDCDB;stroke:#284356;stroke-width:1.6784;stroke-miterlimit:10;" cx="492.5" cy="657.666" r="5.208"/>
		<g>
			<circle style="fill:#708C93;stroke:#284356;stroke-width:1.6784;stroke-miterlimit:10;" cx="669" cy="657.666" r="14.375"/>
		</g>
		<circle style="fill:#DDDCDB;stroke:#284356;stroke-width:1.6784;stroke-miterlimit:10;" cx="669" cy="657.666" r="5.208"/>
	</g>
	<g>
		
			<rect x="271.5" y="424.5" style="fill:#E4EEF2;stroke:#284356;stroke-width:1.5;stroke-linecap:round;stroke-linejoin:round;stroke-miterlimit:10;" width="27.5" height="31.5"/>
		<rect x="274.604" y="433.667" style="fill:#79A8C6;" width="21.417" height="12.333"/>
	</g>
	<g>
		
			<path style="fill:#E5AB65;stroke:#284356;stroke-width:1.4314;stroke-linecap:round;stroke-linejoin:round;stroke-miterlimit:10;" d="
			M231.819,366.063c0-7.49-6.268-13.563-14-13.563c-7.732,0-14,6.072-14,13.563c0,0.064,0.18,3.146,0.181,3.208
			c0,0,3.813,5.479,13.563,5.479c12.438,0,14.247-5.875,14.247-5.875C231.81,368.812,231.819,366.126,231.819,366.063z"/>
	</g>
	<path style="opacity:0.38;fill:#BC7E3B;" d="M204.688,369.016c0,0-0.172-2.281-0.13-3.217c1.26-2.391,4.085-5.962,9.568-7.674
		c-5.875,7.583-6.547,13.328-6.547,13.328s-1.063-0.712-1.391-0.984C205.786,370.135,204.688,369.016,204.688,369.016z"/>
	<path style="opacity:0.38;fill:#BC7E3B;" d="M230.547,369.703c0.227-0.339,0.424-0.533,0.531-0.828
		c0.063-0.656,0.016-1.094,0.001-2.021c-0.694-3.386-3.856-7.305-9.621-9.104c5.875,7.583,5.651,14.547,5.651,14.547
		S229.453,371.344,230.547,369.703z"/>
	<path style="opacity:0.38;fill:#BC7E3B;" d="M217.625,360.875l-3.656,12.906c0,0,1.844,0.253,3.313,0.266
		c1.781,0.016,3.125-0.109,3.125-0.109L217.625,360.875z"/>
	<path style="opacity:0.38;fill:#BC7E3B;" d="M217.938,355.5l-3.047-1.984c0,0,1.375-0.297,2.844-0.297
		c0.831,0,2.656,0.188,2.656,0.188L217.938,355.5z"/>
	<path style="opacity:0.38;fill:#BC7E3B;" d="M207.104,358.458c0,0,5.458-2.771,7.865-2.24c-0.802-1.344-2.469-1.906-2.469-1.906
		S208.896,355.896,207.104,358.458z"/>
	<path style="opacity:0.38;fill:#BC7E3B;" d="M228.297,358.172c0,0-5.828-2.484-8.234-1.953c0.438-1.563,2.797-2.047,2.797-2.047
		S225.969,355.203,228.297,358.172z"/>
	<g>
		
			<path style="fill:#E5AB65;stroke:#284356;stroke-width:1.4314;stroke-linecap:round;stroke-linejoin:round;stroke-miterlimit:10;" d="
			M231.819,366.063c0-7.49-6.268-13.563-14-13.563c-7.732,0-14,6.072-14,13.563c0,0.064,0.18,3.146,0.181,3.208
			c0,0,3.813,5.479,13.563,5.479c12.438,0,14.247-5.875,14.247-5.875C231.81,368.812,231.819,366.126,231.819,366.063z"/>
	</g>
	<path style="opacity:0.38;fill:#BC7E3B;" d="M204.688,369.016c0,0-0.172-2.281-0.13-3.217c1.26-2.391,4.085-5.962,9.568-7.674
		c-5.875,7.583-6.547,13.328-6.547,13.328s-1.063-0.712-1.391-0.984C205.786,370.135,204.688,369.016,204.688,369.016z"/>
	<path style="opacity:0.38;fill:#BC7E3B;" d="M230.547,369.703c0.227-0.339,0.424-0.533,0.531-0.828
		c0.063-0.656,0.016-1.094,0.001-2.021c-0.694-3.386-3.856-7.305-9.621-9.104c5.875,7.583,5.651,14.547,5.651,14.547
		S229.453,371.344,230.547,369.703z"/>
	<path style="opacity:0.38;fill:#BC7E3B;" d="M217.625,360.875l-3.656,12.906c0,0,1.844,0.253,3.313,0.266
		c1.781,0.016,3.125-0.109,3.125-0.109L217.625,360.875z"/>
	<path style="opacity:0.38;fill:#BC7E3B;" d="M217.938,355.5l-3.047-1.984c0,0,1.375-0.297,2.844-0.297
		c0.831,0,2.656,0.188,2.656,0.188L217.938,355.5z"/>
	<path style="opacity:0.38;fill:#BC7E3B;" d="M207.104,358.458c0,0,5.458-2.771,7.865-2.24c-0.802-1.344-2.469-1.906-2.469-1.906
		S208.896,355.896,207.104,358.458z"/>
	<path style="opacity:0.38;fill:#BC7E3B;" d="M228.297,358.172c0,0-5.828-2.484-8.234-1.953c0.438-1.563,2.797-2.047,2.797-2.047
		S225.969,355.203,228.297,358.172z"/>
	
		<path style="fill:#FFFFFF;stroke:#284356;stroke-width:1.5496;stroke-linecap:round;stroke-linejoin:round;stroke-miterlimit:10;" d="
		M281.922,425.172c0,0-0.422,2.969,1.516,2.656s-0.25,3.547,4.063,3.547c3.76,0,3.359-4.797,3.359-4.797s1.58,1.618,1.547-0.328
		c-0.016-0.906-0.016-1.125-0.016-1.125"/>
	<g>
		<path style="fill:#F4CFB3;stroke:#284356;stroke-width:1.8652;stroke-miterlimit:10;" d="M367.623,585.56
			c2.739-1.972,11.315-4.872,11.315-4.872s9.454-3.84,12.113-10.445c3.742-9.276,2.779-14.791,7.236-17.848
			c2.464-1.691,10.61-8.317,14.409-0.049c1.875,4.069-4.187,14.678-9.775,23.704c-7.385,11.928-23.554,11.529-27.878,12.117
			c-0.984,1.012-7.272,3.847-8.104,1.458C366.385,588.007,366.157,586.615,367.623,585.56z"/>
		<g>
			
				<path style="fill:#F4CFB3;stroke:#284356;stroke-width:1.8652;stroke-linecap:round;stroke-linejoin:round;stroke-miterlimit:10;" d="
				M372.032,590.558c-1.151,1.123-3.324-0.453-3.823-1.476c0,0-1.316,0.908-1.59,1.126c-3.042,2.413-3.999-0.784-3.999-0.784
				s6.353-5.908,9.867-4.144"/>
		</g>
		
			<path style="fill:#294356;stroke:#284356;stroke-width:1.8652;stroke-linecap:round;stroke-linejoin:round;stroke-miterlimit:10;" d="
			M438.77,650.738l7.308,7.877l-4.1,3.807l-1.666-1.798c0,0,0.947,2.462-0.698,3.991c-2.346,2.173-7.234,6.713-7.234,6.713
			s-3.022-2.695-1.823-4.723c1.195-2.028,5.163-6.164,3.293-10.386c-1.865-4.226-1.865-4.226-1.865-4.226L438.77,650.738z"/>
		<path style="fill:#27AAE1;stroke:#284356;stroke-width:1.5;stroke-miterlimit:10;" d="M396.63,582.027l4.693,15.815
			c0,0,0.378,10.952,7.009,25.641c8.293,18.376,25.501,36.469,25.501,36.469l8.346-5.874c0,0-20.647-23.35-23.098-51.878
			C417.088,578.957,396.63,582.027,396.63,582.027z"/>
		
			<path style="fill:#3E5C6D;stroke:#284356;stroke-width:1.8652;stroke-linecap:round;stroke-linejoin:round;stroke-miterlimit:10;" d="
			M377.63,660.211l-2.716,10.398l-5.415-1.414l0.617-2.368c0,0-1.563,2.122-3.739,1.554c-3.089-0.811-9.546-2.497-9.546-2.497
			s0.647-3.996,3.004-4.073c2.35-0.081,7.972,1.041,10.528-2.802c2.561-3.843,2.561-3.843,2.561-3.843L377.63,660.211z"/>
		<path style="fill:#27AAE1;stroke:#284356;stroke-width:1.5;stroke-miterlimit:10;" d="M412.086,585.608l-15.752,5.059
			c0,0-9.149,13.556-16.424,27.937c-9.105,17.99-11.516,41.381-11.516,41.381l9.362,2.77c0,0,5.532-30.465,27.515-48.82
			C430.441,592.921,412.086,585.608,412.086,585.608z"/>
		<g>
			
				<path style="fill:#FFFFFF;stroke:#284356;stroke-width:1.5;stroke-linecap:round;stroke-linejoin:round;stroke-miterlimit:10;" d="
				M401.625,545.75c0,0-11.375,9.75-11.125,20.125s6,28.25,6,28.25L417,591.5l2.625-22.375c0,0-0.625-22.833-8.25-25
				C405.177,542.363,401.625,545.75,401.625,545.75z"/>
			<path style="fill:#F2CEB3;stroke:#284356;stroke-width:1.8652;stroke-miterlimit:10;" d="M397.115,508.635
				c13.872-0.783,13.746,11.897,13.746,11.897l0.885,9.216c0,0-0.291,4.364-4.077,8.145l4.49,10.668c0,0-12.33,5.827-15.295,6.186
				c-1.604,0.194-1.362-1.03-0.029-3.163c2.165-3.465,4.07-5.003,4.07-5.003l-2.766-4.62c-1.524,0.256-5.727,1.085-7.581,1.115
				c-4.099,0.062-4.596-1.953-5.168-9.665c-0.126-0.018-0.249-0.027-0.393-0.047c-1.725-0.264-0.968-1.813-0.968-1.813l1.087-3.084
				c-0.202-5.961,0.197-9.052,0.197-9.052S383.86,509.383,397.115,508.635z"/>
			<path style="fill:#294356;" d="M387.924,525.84c0.054,0.712,0.661,1.249,1.355,1.199c0.698-0.049,1.22-0.668,1.17-1.381
				c-0.054-0.712-0.659-1.25-1.354-1.198C388.396,524.509,387.874,525.13,387.924,525.84z"/>
			
				<path style="fill:none;stroke:#284356;stroke-width:1.1191;stroke-linecap:round;stroke-linejoin:round;stroke-miterlimit:10;" d="
				M385.877,537.023c1.267-0.128,4.211-1.384,4.099-2.84"/>
			
				<path style="fill:#8E5A47;stroke:#284356;stroke-width:1.8652;stroke-linecap:round;stroke-linejoin:round;stroke-miterlimit:10;" d="
				M393.725,504.901c1.882-0.324,3.091-0.309,5.561-0.4c8.185-0.316,15.31,3.72,15.913,13.561
				c0.627,10.327-6.423,18.473-6.423,18.473s-1.156-4.968-2.262-7.658c1.045-3.094,0.527-5.322-1.334-5.873
				c-1.373-0.406-2.584,0.524-3.581,2.538c-0.713,1.192-1.126,2.693-1.258,2.711c-1.722,0.238-1.672-3.801-1.731-4.664
				c-0.818-11.344-7.054-8.196-7.054-8.196l2.828,4.966c0,0-5.947,0.22-10.907-3.167C383.563,517.125,384.438,506.5,393.725,504.901
				z"/>
		</g>
		
			<path style="fill:#27AAE1;stroke:#284356;stroke-width:1.5;stroke-linecap:round;stroke-linejoin:round;stroke-miterlimit:10;" d="
			M409.063,610.563C410.75,609,418.25,604,419.5,597.583c2.485-12.759,1.92-22.224-0.17-33.866
			c-0.284,2.715-2.045,16.52-8.58,17.533c-7.25,1.125-10.625-7-10.125-18.5c0.441-10.144,12.438-13.518,14.922-14.141
			c-0.766-1.906-1.533-2.633-2.188-3.406c-1.052-0.422-4.117,0.072-4.891,0.469c-1.628,0.834-3.313,2.109-5.452,4.649
			c-4.535,5.385-7.017,13.804-7.017,13.804h-5.677c-0.843,4.169-0.348,8.184,0.426,14.49C392.938,596.438,387,605.5,387,605.5"/>
		
			<path style="fill:#F4CFB3;stroke:#284356;stroke-width:1.8652;stroke-linecap:round;stroke-linejoin:round;stroke-miterlimit:10;" d="
			M397.938,575.313c-7.793,2.496-12.176,5.341-15.346,5.546c-1.864-0.023-5.209-0.042-7.051,0.117
			c-10.21,0.871-6.051,8.788-4.76,9.24c1.288,0.461,3.314-3.814,4.886-3.966c2.583-0.25,6.131,0.278,8.25-0.25
			c3.947-0.781,17.799-2.502,21.5-4.749c4.965-7.773,9.986-24.192,9.986-24.192c0.503-8.149-1.196-6.21-2.781-6.505
			c-4.014-0.741-6.649,0.286-9.997,9.946c-2.099,6.056-2.792,9.375-5,15.25"/>
		
			<path style="fill:#FFFFFF;stroke:#284356;stroke-width:1.5;stroke-linecap:round;stroke-linejoin:round;stroke-miterlimit:10;" d="
			M412.25,568.667l-11.625-5.917c0,0,4.32-14.729,9.875-15.292c7.522-0.763,6.461,7.977,5.667,10.959
			C415.434,561.171,414.375,564.167,412.25,568.667z"/>
	</g>
	<g>
		<g>
			
				<path style="fill:none;stroke:#284356;stroke-width:1.6784;stroke-linecap:round;stroke-linejoin:round;stroke-miterlimit:10;" d="
				M373.837,584.788c-2.731,0.816-5.533,2.194-6.254,2.546c-8.474,3.707-35.22,36.992-35.233,37.004"/>
			<g>
				<path style="fill:none;stroke:#284356;stroke-width:1.6784;stroke-miterlimit:10;" d="M347.811,656.03
					c-1.382,0.304-3.097,0.173-5.106-0.395l-22.08-6.222c-5.309-1.501-10.647-5.608-12.141-9.356
					c-0.552-1.38-0.535-2.628,0.049-3.625l5.968-10.101c0.497-0.849,1.379-1.437,2.549-1.694c3.87-0.86,10.581,1.894,14.653,6.015
					l16.11,16.333c2.401,2.424,3.415,4.78,2.873,6.633C350.326,654.842,349.309,655.696,347.811,656.03z"/>
			</g>
			<path style="fill:#E5AB65;stroke:#284356;stroke-width:1.6784;stroke-miterlimit:10;" d="M320.784,647.779
				c-8.545,11.953-25.438,14.104-36.707,4.675l-32.52-27.203l93.895-11.956L320.784,647.779z"/>
			<path style="opacity:0.28;fill:#284356;" d="M345.445,613.072l-2.164,3.688l-77.25,9.654l28.333,22.948
				c5.288,4.425,11.813,6.299,18.132,5.808c-8.813,4.882-20.135,4.217-28.42-2.717l-32.52-27.203L345.445,613.072z"/>
			<path style="fill:#E5AB65;stroke:#284356;stroke-width:1.6784;stroke-miterlimit:10;" d="M347.436,611.259
				c0.125,1.002-0.578,1.914-1.582,2.04l-94.384,12.02c-1.004,0.127-1.919-0.579-2.044-1.578l0,0
				c-0.129-1.002,0.578-1.917,1.578-2.044l94.39-12.018C346.394,609.553,347.308,610.259,347.436,611.259L347.436,611.259z"/>
			<path style="fill:#708C93;stroke:#284356;stroke-width:1.6784;stroke-miterlimit:10;" d="M314.184,657.499l-1.117-0.215
				c0.01-0.695-0.023-1.394-0.116-2.103c-0.096-0.718-0.236-1.421-0.424-2.102l1.036-0.489c0.417-0.197,0.597-0.697,0.397-1.11
				l-1.429-3.033c-0.194-0.416-0.695-0.599-1.114-0.398l-1.042,0.491c-0.818-1.166-1.798-2.199-2.904-3.076l0.556-1.022
				c0.224-0.4,0.075-0.911-0.332-1.135l-2.936-1.611c-0.403-0.223-0.919-0.07-1.139,0.333l-0.558,1.019
				c-1.321-0.458-2.717-0.727-4.155-0.791l-0.145-1.148c-0.058-0.462-0.477-0.786-0.935-0.727l-3.326,0.424
				c-0.458,0.06-0.781,0.477-0.723,0.938l0.142,1.15c-1.374,0.421-2.658,1.032-3.824,1.804l-0.796-0.845
				c-0.315-0.334-0.846-0.354-1.183-0.035l-2.436,2.296c-0.341,0.317-0.357,0.848-0.036,1.183l0.793,0.848
				c-0.851,1.126-1.544,2.373-2.044,3.701l-1.132-0.213c-0.451-0.088-0.893,0.212-0.977,0.667l-0.626,3.293
				c-0.085,0.454,0.213,0.893,0.662,0.979l1.132,0.215c-0.018,0.703,0.02,1.417,0.112,2.138c0.09,0.711,0.229,1.398,0.412,2.066
				l-1.029,0.486c-0.417,0.196-0.595,0.699-0.401,1.116l1.43,3.03c0.203,0.42,0.701,0.595,1.12,0.399l1.024-0.483
				c0.822,1.167,1.799,2.207,2.909,3.091l-0.547,0.994c-0.217,0.407-0.071,0.916,0.334,1.137l2.934,1.612
				c0.405,0.222,0.914,0.074,1.137-0.33l0.541-0.991c1.332,0.461,2.733,0.733,4.177,0.797l0.141,1.119
				c0.059,0.455,0.482,0.781,0.939,0.72l3.326-0.42c0.456-0.058,0.781-0.479,0.721-0.936l-0.141-1.118
				c1.383-0.424,2.674-1.037,3.844-1.817l0.768,0.823c0.319,0.335,0.855,0.352,1.188,0.036l2.436-2.296
				c0.338-0.315,0.354-0.846,0.036-1.184l-0.777-0.828c0.853-1.132,1.544-2.387,2.042-3.718l1.115,0.207
				c0.456,0.086,0.896-0.207,0.981-0.663l0.624-3.293C314.937,658.025,314.637,657.584,314.184,657.499z M299.309,665.033
				c-4.435,0.56-8.488-2.577-9.055-7.012c-0.562-4.436,2.57-8.486,7.005-9.053c4.439-0.565,8.493,2.571,9.057,7.008
				C306.884,660.411,303.743,664.469,299.309,665.033z"/>
			<path style="fill:#DDDCDB;stroke:#284356;stroke-width:1.6784;stroke-miterlimit:10;" d="M290.056,659.489
				c1.356,4.527,6.127,7.099,10.654,5.743c4.529-1.354,7.101-6.126,5.744-10.652c-1.355-4.528-6.125-7.1-10.654-5.744
				C291.272,650.19,288.701,654.962,290.056,659.489z"/>
		</g>
		<path style="fill:#DDDCDB;stroke:#284356;stroke-width:1.6784;stroke-miterlimit:10;" d="M364.158,587.911
			c0.424,1.421,1.922,2.23,3.342,1.804l7.502-2.248c1.421-0.424,2.228-1.921,1.802-3.343l0,0c-0.425-1.419-1.922-2.227-3.342-1.801
			l-7.504,2.246C364.538,584.995,363.731,586.492,364.158,587.911L364.158,587.911z"/>
	</g>
	
		<path style="fill:#E5AB65;stroke:#284356;stroke-width:1.4314;stroke-linecap:round;stroke-linejoin:round;stroke-miterlimit:10;" d="
		M385.333,517.5c0,0-12.245,3.309-7.917,4.376c2.708,0.668,3.516,1.037,7.416,1.014c8.705-0.052,17.97-0.987,20.042-1.765
		C405.109,521.037,385.333,517.5,385.333,517.5z"/>
	
		<path style="fill:#E5AB65;stroke:#284356;stroke-width:1.4314;stroke-linecap:round;stroke-linejoin:round;stroke-miterlimit:10;" d="
		M382.813,519c9.125,4.438,26.729,4.042,33.563,3.375C418.25,513,414.361,503.055,402,502.5
		C382.5,501.625,382.563,514.938,382.813,519z"/>
	<path style="opacity:0.38;fill:#BC7E3B;" d="M401.292,506.875l-4.813,14.625c0,0,1.88,0.25,3.302,0.328
		c0.879,0.048,3.516,0.203,3.516,0.203L401.292,506.875z"/>
	<path style="opacity:0.38;fill:#BC7E3B;" d="M393.417,506.5c0,0-7.636,3.375-9.026,12.359c1.688,0.797,4.484,1.453,4.484,1.453
		s-0.313-3.125,0.844-6.469C390.336,512.059,393.417,506.5,393.417,506.5z"/>
	<path style="opacity:0.38;fill:#BC7E3B;" d="M409.375,507.834c0,0,5.068,4.916,6.459,13.9C414,521.844,411.292,522,411.292,522
		s0.273-2.005-0.125-5.521C410.917,514.271,409.375,507.834,409.375,507.834z"/>
	<path style="opacity:0.38;fill:#BC7E3B;" d="M398.297,503.219l2.891,1.094l2.938-0.891
		C404.125,503.422,401.594,503.016,398.297,503.219z"/>
	<g>
		<g>
			
				<path style="fill:#F4CFB3;stroke:#284356;stroke-width:1.4607;stroke-linecap:round;stroke-linejoin:round;stroke-miterlimit:10;" d="
				M586.225,218.343c-1.789-15.011-7.061-24.102-7.061-24.102c-4.869-10.47-12.449-9.495-12.449-9.495l-0.225,17.77
				c0,0,2.613-0.874,7.075,8.765c1.475,3.186,2.611,6.356,3.491,9.334l9.232-1.731C586.268,218.704,586.246,218.52,586.225,218.343z
				"/>
		</g>
		<g>
			
				<path style="fill:#F4CFB3;stroke:#284356;stroke-width:1.4607;stroke-linecap:round;stroke-linejoin:round;stroke-miterlimit:10;" d="
				M536.494,184.746c0,0-7.582-0.975-12.451,9.495c0,0-4.71,4.342-6.043,20.509l8.375,5.123c0.847-2.76,1.916-5.67,3.269-8.592
				c4.461-9.639,7.074-8.765,7.074-8.765L536.494,184.746z"/>
		</g>
		<path style="fill:#284356;stroke:#284356;stroke-width:1.4607;stroke-miterlimit:10;" d="M564.044,280.724v11.586h20.152
			c0,0,0.411-4.348-2.021-5.068c-2.436-0.726-8.6-1.09-10.223-5.794c-1.623-4.708-1.623-4.708-1.623-4.708L564.044,280.724z"/>
		<path style="fill:#284356;stroke:#284356;stroke-width:1.4607;stroke-miterlimit:10;" d="M540.805,280.22v11.587h-6.035h-14.116
			c0,0-0.411-4.348,2.022-5.068c2.433-0.726,8.601-1.089,10.223-5.794c1.624-4.708,1.624-4.708,1.624-4.708L540.805,280.22z"/>
		<path style="fill:#FFFFFF;stroke:#284356;stroke-width:1.4607;stroke-miterlimit:10;" d="M584.398,207.143
			c-1.888-12.273-8.045-20.811-13.205-22.328c-0.41-0.25-0.926-0.478-1.596-0.661c-4.883-1.341-19.007-2.483-19.007-2.483
			s-11.847,1.339-16.222,2.398c-0.58,0.14-1.172,0.309-1.688,0.586c-5.284,0.94-11.902,9.681-13.872,22.488l14.352,2.642
			c0.401,9.668,1.193,27.04,1.543,35.594l3.546-5.141l12.667-6.75l0.372,14.762l3.122-0.523l9.089-0.405l4.66-2.027
			c0.239-1.891,1.087-25.035,1.458-35.43L584.398,207.143z"/>
		<g>
			<g>
				
					<path style="fill:#27AAE1;stroke:#284356;stroke-width:1.5;stroke-linecap:round;stroke-linejoin:round;stroke-miterlimit:10;" d="
					M566.625,233.375c-1.726-12.101-4.618-28.827-4.618-28.827h-21.269c0,0-3.514,16.831-5.255,29.783
					c-0.959,7.129,0.111,6.075-2.857,10.606c-0.77,1.174-2.779,5.083-1.875,6.063c1.144,1.24,4.875-0.063,4.875-0.063
					s16.64-0.398,28.792-0.02c6.934,0.215,6.946,3.099,9.5,0.25C573.75,245.125,567.795,241.581,566.625,233.375z"/>
			</g>
			<path style="fill:#27AAE1;stroke:#284356;stroke-width:1.5;stroke-miterlimit:10;" d="M530.822,283.167l10.84-0.059l3.232-33.024
				c0,0,0.606-8.646-6.331-8.583c-6.543,0.059-7.786,5.655-8.026,8.583C529.859,258.327,530.822,283.167,530.822,283.167z"/>
			<path style="fill:#27AAE1;stroke:#284356;stroke-width:1.5;stroke-miterlimit:10;" d="M573.954,283.167l-10.84-0.059
				l-3.231-33.024c0,0-0.606-8.646,6.331-8.583c6.543,0.059,7.786,5.655,8.026,8.583
				C574.917,258.327,573.954,283.167,573.954,283.167z"/>
		</g>
		<path style="fill:#F4CFB3;stroke:#284356;stroke-width:1.4607;stroke-miterlimit:10;" d="M559.05,164.508v19.454
			c0,0-3.69,3.355-9.392,3.133c-4.023-0.158-5.346-3.756-5.346-3.756l0.236-17.16L559.05,164.508z"/>
		<path style="fill:#F4CFB3;stroke:#284356;stroke-width:1.4607;stroke-miterlimit:10;" d="M565.125,152.769
			c0,0,0-13.416-14.313-13.193c-14.981,0.234-13.861,13.864-13.861,13.864l0.443,9.615c0,0,1.322,16.56,13.988,16.883
			c1.898,0.048,11.18-1.681,12.668-16.736C564.925,157.383,565.125,152.769,565.125,152.769z"/>
		<path style="fill:#284356;" d="M545.959,157.352c0,0.771-0.609,1.397-1.365,1.397c-0.752,0-1.363-0.627-1.363-1.397
			c0-0.77,0.611-1.395,1.363-1.395C545.35,155.957,545.959,156.582,545.959,157.352z"/>
		<path style="fill:#284356;" d="M558.416,157.464c0,0.769-0.607,1.396-1.363,1.396c-0.754,0-1.363-0.627-1.363-1.396
			c0-0.77,0.609-1.395,1.363-1.395C557.809,156.068,558.416,156.693,558.416,157.464z"/>
		
			<path style="fill:none;stroke:#284356;stroke-width:1.4607;stroke-linecap:round;stroke-linejoin:round;stroke-miterlimit:10;" d="
			M546.975,169.986c0,0,1.172,0.159,3.305,0.261c1.574,0.077,3.965-1.006,4.354-2.889"/>
		<path style="fill:#F4CFB3;stroke:#284356;stroke-width:1.4607;stroke-miterlimit:10;" d="M564.604,156.644
			c0,0,1.269-2.535,3.206-1.712c1.977,0.833,1.415,5.066-0.224,9.093c-1.641,4.023-3.951,3.726-3.951,3.726
			c0.374-1.713,0.522-2.607,0.67-5.889C564.368,160.52,564.604,156.644,564.604,156.644z"/>
		<path style="fill:#F4CFB3;stroke:#284356;stroke-width:1.4607;stroke-miterlimit:10;" d="M537.324,155.823
			c0-0.921-1.193-2.757-3.438-1.341c-1.813,1.145-1.416,5.068,0.225,9.094c1.64,4.024,3.653,3.576,3.653,3.576
			S537.324,160.669,537.324,155.823z"/>
		
			<path style="fill:#284356;stroke:#284356;stroke-width:1.4607;stroke-linecap:round;stroke-linejoin:round;stroke-miterlimit:10;" d="
			M558.938,146.656c-5.813,5.44-16.399,4.099-16.399,4.099v-3.278l-1.863,0.074c0,0-3.278-0.074-3.281,5.218
			c0,5.813,0,7.751,0,7.751s-2.229-5.074-2.57-13.12c-0.444-10.62,8.068-13.78,11.852-14.199c2.648-0.29,5.438-0.124,7.49,0
			c0.793,0.049-0.11-2.012,0-2.012c3.244,0,6.207,3.274,6.823,3.467c5.235,1.63,8.497,5.542,6.484,13.975
			c-1.752,7.345-3.169,11.741-3.169,11.741v-9.839C564.305,150.532,564.295,141.643,558.938,146.656z"/>
		<path style="fill:#27AAE1;stroke:#284356;stroke-width:1.5;stroke-miterlimit:10;" d="M559.172,207.086
			c-1.47-0.095-2.556-1.403-2.378-2.866l2.623-21.655l5.343,0.886l-2.559,21.121C562.018,206.079,560.688,207.185,559.172,207.086z"
			/>
		<path style="fill:#27AAE1;stroke:#284356;stroke-width:1.5;stroke-miterlimit:10;" d="M543.354,207.086
			c1.47-0.095,2.556-1.403,2.379-2.866l-2.624-21.655l-5.344,0.886l2.561,21.121C540.508,206.079,541.838,207.185,543.354,207.086z"
			/>
	</g>
	<g>
		
			<path style="fill:#E5AB65;stroke:#284356;stroke-width:1.8659;stroke-linecap:round;stroke-linejoin:round;stroke-miterlimit:10;" d="
			M569.068,143.54c0-9.764-8.321-15.885-18.401-15.885c-10.079,0-18.099,6.122-18.099,15.885c0,0.083,0.235,4.101,0.236,4.183
			c0,0,4.61,2.027,17.32,2.027c16.214,0,18.931-2.544,18.931-2.544C569.058,147.124,569.068,143.623,569.068,143.54z"/>
	</g>
	<path style="opacity:0.38;fill:#BC7E3B;" d="M533.734,147.149c0-1.063-0.257-2.733-0.204-3.953
		c1.643-3.117,5.571-10.852,12.72-13.083c-7.659,9.885-8.266,18.677-8.266,18.677S535.969,148.306,533.734,147.149z"/>
	<path style="opacity:0.38;fill:#BC7E3B;" d="M568.125,146.79c0.081-0.855-0.001-1.009-0.021-2.217
		c-0.904-4.414-4.589-11.906-12.104-14.251c7.658,9.886,6.938,18.542,6.938,18.542S566.563,148.04,568.125,146.79z"/>
	<path style="opacity:0.38;fill:#BC7E3B;" d="M550.566,129.363l-4.801,20.584c0,0,2.429,0.124,4.344,0.141
		c2.322,0.021,4.082-0.115,4.082-0.115L550.566,129.363z"/>
	<path style="fill:#27AAE1;stroke:#284356;stroke-width:1.5;stroke-linecap:round;stroke-linejoin:round;stroke-miterlimit:10;" d="
		M559.364,228.75c0,0-5.761,5.062-8.166,5.083c-2.476,0.022-8.5-5.083-8.5-5.083v-12.833h16.666V228.75z"/>
	
		<path style="fill:#F4CFB3;stroke:#284356;stroke-width:1.4607;stroke-linecap:round;stroke-linejoin:round;stroke-miterlimit:10;" d="
		M518.5,210.375c0,0-1.53,10.51,0.583,12.042c1.087,0.788,4.055,1.03,7.168-1.001c5.75-3.75,9.338-6.716,12.562-8.479
		c2.803-1.533,6.552-0.566,8.75-3.188c1.624-1.938,0.17-2.408-0.25-3.125c-1.72-2.942,5.837-6.549,5.5-7.125
		c-0.245-0.421-8.344,0.16-10.535,1.102c-1.606,0.689-1.848,5.468-2.777,6.585c-3.6,1.14-10.224,1.865-14.499,2.854"/>
	
		<path style="fill:#F4CFB3;stroke:#284356;stroke-width:1.4607;stroke-linecap:round;stroke-linejoin:round;stroke-miterlimit:10;" d="
		M585.25,212.375c0,0,2.613,9.468,0.5,11c-1.087,0.788-5.636,1.405-8.749-0.625c-5.75-3.75-8.315-8.237-11.538-10
		c-2.803-1.533-6.552-0.566-8.75-3.188c-1.624-1.938-0.17-2.408,0.25-3.125c1.72-2.942-5.837-6.549-5.5-7.125
		c0.245-0.421,8.344,0.16,10.535,1.102c1.607,0.689,1.848,5.468,2.777,6.585c3.6,1.14,10.325,3.136,14.601,4.125"/>
	<g>
		
			<path style="fill:#FFE183;stroke:#284356;stroke-width:1.4607;stroke-linecap:round;stroke-linejoin:round;stroke-miterlimit:10;" d="
			M551.957,197.792c-4.924,0-8.916,3.992-8.916,8.917h17.833C560.874,201.784,556.882,197.792,551.957,197.792z"/>
	</g>
	
		<path style="fill:#C1A965;stroke:#284356;stroke-width:1.4607;stroke-linecap:round;stroke-linejoin:round;stroke-miterlimit:10;" d="
		M561.676,210.063c0,1.105-0.894,2-2,2h-15.438c-1.104,0-2-0.895-2-2l0,0c0-1.105,0.896-2,2-2h15.438
		C560.781,208.063,561.676,208.958,561.676,210.063L561.676,210.063z"/>
	
		<polygon style="fill:#88B56B;stroke:#284356;stroke-width:1.5;stroke-linecap:round;stroke-linejoin:round;stroke-miterlimit:10;" points="
		544.313,207.078 546.891,210.578 552.641,208.641 557.859,210.438 560.063,207.219 	"/>
	<path style="opacity:0.39;fill:#FFAA85;" d="M552.234,198.531c-3.017-0.121-5.24,1.29-6.875,3.297
		c0.292,0.895,0.387,1.016,0.922,1.234c2.219,0.906,4.269-0.521,4.969-0.531c0.846-0.012,4.029,1.666,4.844,1.438
		c1.781-0.5,1.794-1.767,2.313-2.156C558.505,201.738,556.516,198.703,552.234,198.531z"/>
	
		<path style="fill:#E5AB65;stroke:#284356;stroke-width:1.8659;stroke-linecap:round;stroke-linejoin:round;stroke-miterlimit:10;" d="
		M567.131,147.938c0,1.415-1.147,2.563-2.563,2.563h-27.5c-1.415,0-2.563-1.148-2.563-2.563l0,0c0-1.415,1.147-2.563,2.563-2.563
		h27.5C565.983,145.375,567.131,146.523,567.131,147.938L567.131,147.938z"/>
	<g>
		
			<path style="fill:#8FBCCC;stroke:#284356;stroke-width:1.5;stroke-linecap:round;stroke-linejoin:round;stroke-miterlimit:10;" d="
			M635,249.042c0,2.485-2.015,4.5-4.5,4.5h-29.75c-2.485,0-4.5-2.015-4.5-4.5v-12c0-2.485,2.015-4.5,4.5-4.5h29.75
			c2.485,0,4.5,2.015,4.5,4.5V249.042z"/>
		
			<line style="fill:#8FBCCC;stroke:#284356;stroke-width:1.5;stroke-linecap:round;stroke-linejoin:round;stroke-miterlimit:10;" x1="596.417" y1="242.46" x2="634.917" y2="242.46"/>
		
			<path style="fill:#D4E3E8;stroke:#284356;stroke-width:1.5;stroke-linecap:round;stroke-linejoin:round;stroke-miterlimit:10;" d="
			M617.876,246.209c0,0.829-0.672,1.5-1.5,1.5h-2.209c-0.828,0-1.5-0.671-1.5-1.5v-6.042c0-0.829,0.672-1.5,1.5-1.5h2.209
			c0.828,0,1.5,0.671,1.5,1.5V246.209z"/>
		<path style="fill:none;stroke:#284356;stroke-width:1.5;stroke-linecap:round;stroke-linejoin:round;stroke-miterlimit:10;" d="
			M606.188,232.355v-4.563c0-0.829,0.672-1.5,1.5-1.5h15.875c0.828,0,1.5,0.671,1.5,1.5v4.563"/>
	</g>
</g>
</svg>
